<svg width="84" height="38" viewBox="0 0 84 38" fill="none" xmlns="http://www.w3.org/2000/svg">
<path d="M0 0H72C78.6274 0 84 5.37258 84 12V26C84 32.6274 78.6274 38 72 38H0V0Z" fill="url(#paint0_linear_1144_3597)"/>
<path d="M31.6221 14.5356H37.043V13.1772H37.9443V14.5356H43.4414V15.3862H38.7378C40.075 16.4061 41.7656 17.1763 43.8096 17.6968C43.5895 18.0269 43.3949 18.3273 43.2256 18.5981C42.7686 18.4416 42.3285 18.2723 41.9053 18.0903V23.6001H40.9404V23.0288H34.0977V23.6128H33.1328V18.1538C32.7012 18.3527 32.2484 18.5431 31.7744 18.7251C31.5967 18.4627 31.3978 18.1919 31.1777 17.9126C33.3613 17.2228 35.035 16.3807 36.1987 15.3862H31.6221V14.5356ZM31.3174 24.2856H43.6826V25.1997H31.3174V24.2856ZM37.043 17.7729V15.5957C36.0697 16.5352 34.8128 17.3667 33.2725 18.0903H41.8989C40.3374 17.4259 39.0192 16.6029 37.9443 15.6211V17.7729H37.043ZM34.0977 22.1528H40.9404V20.9849H34.0977V22.1528ZM40.9404 18.9663H34.0977V20.1216H40.9404V18.9663Z" fill="white"/>
<path d="M50.8555 14.5737H56.2637V25.3901H55.2607V24.1079H51.8584V25.3901H50.8555V14.5737ZM44.2793 18.8647H46.8818C46.9326 18.0861 46.9622 17.1043 46.9707 15.9194H45.8916C45.6377 16.6388 45.3753 17.2821 45.1045 17.8491C44.7236 17.6883 44.402 17.5614 44.1396 17.4683C44.7998 16.2072 45.3245 14.7684 45.7139 13.1519L46.7041 13.3804C46.5433 13.9559 46.3783 14.4976 46.209 15.0054H50.0811V15.9194H47.9863C47.9779 17.0874 47.9525 18.0692 47.9102 18.8647H50.335V19.7788H47.834C47.8086 19.9989 47.7832 20.2062 47.7578 20.4009C48.8327 21.6196 49.751 22.7157 50.5127 23.689L49.6494 24.3364C48.8369 23.2531 48.1133 22.339 47.4785 21.5942C46.9961 23.2192 46.0947 24.5861 44.7744 25.6948C44.5544 25.3986 44.3174 25.1066 44.0635 24.8188C45.6546 23.5324 46.5687 21.8524 46.8057 19.7788H44.2793V18.8647ZM55.2607 15.5132H51.8584V23.1938H55.2607V15.5132Z" fill="white"/>
<path d="M61.9385 14.0786H68.9336V20.7563H67.9561V19.9946H62.916V20.7563H61.9385V14.0786ZM67.9561 14.9673H62.916V19.106H67.9561V14.9673ZM61.6973 21.3403C61.7396 21.6958 61.7946 22.047 61.8623 22.394C61.1006 22.9611 60.377 23.5239 59.6914 24.0825C59.5221 24.2349 59.3359 24.4295 59.1328 24.6665L58.3838 23.8794C58.6546 23.6086 58.79 23.2362 58.79 22.7622V18.3696H57.1777V17.4556H59.7676V22.8511C60.4616 22.3348 61.1048 21.8312 61.6973 21.3403ZM66.0771 21.9751L66.9023 21.3657C67.9095 22.4406 68.9294 23.6043 69.9619 24.8569L69.0479 25.5425C68.0915 24.3068 67.1012 23.1177 66.0771 21.9751ZM63.7158 21.3149L64.5664 21.9243C63.5592 23.1515 62.4336 24.3745 61.1895 25.5933C60.9779 25.3901 60.7197 25.1616 60.415 24.9077C61.583 23.8498 62.6833 22.6522 63.7158 21.3149ZM59.082 13.4312C59.9115 14.2775 60.5716 14.9757 61.0625 15.5259L60.1865 16.2495C59.5348 15.4116 58.917 14.6838 58.333 14.0659L59.082 13.4312Z" fill="white"/>
<path d="M24.6717 23.5335L24.3648 23.1522C25.3847 22.3314 26.0558 21.1547 26.2429 19.8589C26.43 18.5632 26.1192 17.2447 25.3732 16.1689C24.6272 15.0931 23.5013 14.3399 22.2222 14.061C20.9431 13.782 19.6058 13.998 18.4795 14.6655C17.3533 15.333 16.5218 16.4024 16.1524 17.6584C15.783 18.9143 15.9032 20.2636 16.4888 21.4345C17.0743 22.6054 18.0817 23.511 19.3082 23.969C20.5346 24.4269 21.889 24.4032 23.0987 23.9026L23.4589 24.7731C23.0201 24.9547 22.5651 25.0832 22.1033 25.1585C21.0606 25.3284 19.9833 25.2267 18.9786 24.8515C17.529 24.3103 16.3382 23.2399 15.6462 21.8559C14.9541 20.4719 14.812 18.8771 15.2486 17.3925C15.6852 15.908 16.6681 14.644 17.9992 13.8551C19.3304 13.0661 20.911 12.8108 22.4229 13.1405C23.9347 13.4703 25.2656 14.3605 26.1473 15.6321C27.0291 16.9036 27.3964 18.4621 27.1753 19.9936C27.022 21.055 26.594 22.0489 25.9444 22.8819C25.8792 22.9655 25.8118 23.0475 25.7422 23.1278L27.8629 25.2485C28.0777 25.4633 28.0777 25.8116 27.8629 26.0264C27.6481 26.2411 27.2999 26.2411 27.0851 26.0264L24.8034 23.7447C24.7419 23.6831 24.698 23.6106 24.6717 23.5335Z" fill="white"/>
<defs>
<linearGradient id="paint0_linear_1144_3597" x1="-9.97417e-07" y1="38" x2="84.8452" y2="7.88085" gradientUnits="userSpaceOnUse">
<stop stop-color="#2F9B9D"/>
<stop offset="1" stop-color="#2A6D6F"/>
</linearGradient>
</defs>
</svg>
