<svg width="84" height="38" viewBox="0 0 84 38" fill="none" xmlns="http://www.w3.org/2000/svg">
<path d="M0 26C0 32.6274 5.37258 38 12 38H84V0H12C5.37258 0 0 5.37258 0 12V26Z" fill="url(#paint0_linear_1144_3589)"/>
<path d="M31.6221 14.5356H37.043V13.1772H37.9443V14.5356H43.4414V15.3862H38.7378C40.075 16.4061 41.7656 17.1763 43.8096 17.6968C43.5895 18.0269 43.3949 18.3273 43.2256 18.5981C42.7686 18.4416 42.3285 18.2723 41.9053 18.0903V23.6001H40.9404V23.0288H34.0977V23.6128H33.1328V18.1538C32.7012 18.3527 32.2484 18.5431 31.7744 18.7251C31.5967 18.4627 31.3978 18.1919 31.1777 17.9126C33.3613 17.2228 35.035 16.3807 36.1987 15.3862H31.6221V14.5356ZM31.3174 24.2856H43.6826V25.1997H31.3174V24.2856ZM37.043 17.7729V15.5957C36.0697 16.5352 34.8128 17.3667 33.2725 18.0903H41.8989C40.3374 17.4259 39.0192 16.6029 37.9443 15.6211V17.7729H37.043ZM34.0977 22.1528H40.9404V20.9849H34.0977V22.1528ZM40.9404 18.9663H34.0977V20.1216H40.9404V18.9663Z" fill="white"/>
<path d="M53.9277 21.3022C54.7402 22.411 55.6162 23.6847 56.5557 25.1235C56.2171 25.3182 55.887 25.5129 55.5654 25.7075C55.3285 25.314 55.0957 24.9331 54.8672 24.5649C52.0911 24.7935 49.916 24.9839 48.3418 25.1362L47.8721 24.0317C48.4053 23.7948 48.9258 23.2996 49.4336 22.5464C49.9922 21.7508 50.5106 20.9129 50.9888 20.0327H47.6562V19.1187H51.6426V16.4272H48.2783V15.5132H51.6426V13.1899H52.6582V15.5132H56.1748V16.4272H52.6582V19.1187H56.7715V20.0327H52.2646C51.321 21.5858 50.3984 22.9272 49.4971 24.0571C51.1094 23.981 52.7217 23.8667 54.334 23.7144C53.8981 23.033 53.4834 22.4067 53.0898 21.8354L53.9277 21.3022ZM46.0566 20.2866C46.3698 20.422 46.7041 20.5617 47.0596 20.7056C46.4587 22.5083 45.9339 24.1375 45.4854 25.5933L44.3936 25.2251C44.9521 23.7355 45.5065 22.0894 46.0566 20.2866ZM44.8125 16.6431C45.4473 17.0916 46.1921 17.6672 47.0469 18.3696C46.7337 18.7251 46.4883 19.0002 46.3105 19.1948C45.3542 18.34 44.6432 17.7349 44.1777 17.3794L44.8125 16.6431ZM45.3076 13.355C45.9847 13.8966 46.7126 14.5145 47.4912 15.2085C47.2035 15.5047 46.9538 15.7671 46.7422 15.9956C45.9635 15.2254 45.2695 14.578 44.6602 14.0532L45.3076 13.355Z" fill="white"/>
<path d="M65.1377 15.7798H66.0771V17.6714C66.0771 18.814 65.9925 19.8042 65.8232 20.6421H66.6611V23.7778C66.6611 24.2687 66.8939 24.5142 67.3594 24.5142H67.9814C68.4046 24.5142 68.6416 24.2983 68.6924 23.8667C68.7516 23.3758 68.7939 22.8088 68.8193 22.1655C69.2171 22.3348 69.5514 22.466 69.8223 22.5591C69.763 23.16 69.6995 23.6974 69.6318 24.1714C69.4964 24.9924 69.0055 25.4028 68.1592 25.4028H67.1055C66.1914 25.4028 65.7344 24.9119 65.7344 23.9302V21.0356C65.3535 22.6945 64.1898 24.2772 62.2432 25.7837C61.9046 25.4028 61.6465 25.132 61.4688 24.9712C62.9753 23.8709 63.9697 22.7961 64.4521 21.7466C64.9092 20.841 65.1377 19.4784 65.1377 17.6587V15.7798ZM57.2793 18.8013H59.2344C59.2513 18.395 59.2598 17.6375 59.2598 16.5288H57.4443V15.6655H59.2598V13.3042H60.2119V15.6655H62.04V16.5288H60.2119C60.2119 17.1551 60.2035 17.9126 60.1865 18.8013H62.2432V19.6646H60.1357C60.1273 19.9354 60.1061 20.2104 60.0723 20.4897C60.8763 21.2345 61.7396 22.0724 62.6621 23.0034L61.875 23.7397C61.2487 22.9526 60.5928 22.1994 59.9072 21.48C59.5179 23.0796 58.8154 24.4761 57.7998 25.6694C57.6475 25.4409 57.4443 25.1447 57.1904 24.7808C58.4684 23.1896 59.1328 21.4842 59.1836 19.6646H57.2793V18.8013ZM62.6113 13.8374H68.7686V21.4419H67.8291V14.7388H63.5508V21.6196H62.6113V13.8374Z" fill="white"/>
<path d="M24.6772 23.5395L24.3703 23.1582C25.3908 22.3369 26.0623 21.1595 26.2495 19.863C26.4367 18.5665 26.1258 17.2472 25.3793 16.1708C24.6328 15.0944 23.5063 14.3407 22.2264 14.0616C20.9466 13.7825 19.6085 13.9986 18.4816 14.6665C17.3547 15.3344 16.5227 16.4044 16.1531 17.6611C15.7835 18.9178 15.9037 20.2679 16.4896 21.4395C17.0755 22.6111 18.0835 23.5172 19.3107 23.9755C20.5379 24.4337 21.8931 24.4099 23.1035 23.909L23.4639 24.78L23.4622 24.7807C23.0239 24.962 22.5695 25.0903 22.1083 25.1655C21.0648 25.3357 19.9865 25.234 18.981 24.8585C17.5305 24.3169 16.339 23.2459 15.6465 21.8611C14.954 20.4763 14.8119 18.8805 15.2488 17.3951C15.6856 15.9097 16.669 14.645 18.001 13.8556C19.3329 13.0662 20.9145 12.8107 22.4273 13.1406C23.94 13.4705 25.2716 14.3613 26.1539 15.6336C27.0362 16.906 27.4038 18.4653 27.1825 19.9977C27.0291 21.06 26.6006 22.0547 25.9503 22.8884C25.8851 22.972 25.8177 23.054 25.7481 23.1343L27.8703 25.2565C28.0851 25.4712 28.0851 25.8195 27.8703 26.0343C27.6555 26.2491 27.3072 26.2491 27.0925 26.0343L24.8089 23.7508C24.7474 23.6892 24.7035 23.6167 24.6772 23.5395Z" fill="white"/>
<defs>
<linearGradient id="paint0_linear_1144_3589" x1="2" y1="36" x2="84" y2="4" gradientUnits="userSpaceOnUse">
<stop stop-color="#5E6877"/>
<stop offset="1" stop-color="#353D48"/>
</linearGradient>
</defs>
</svg>
