<svg width="360" height="295" viewBox="0 0 360 295" fill="none" xmlns="http://www.w3.org/2000/svg">
<path opacity="0.601594" fill-rule="evenodd" clip-rule="evenodd" d="M177.923 0C211.758 0 242.957 11.1124 267.957 29.8318L257.901 29.8327C253.141 29.8327 249.282 33.6912 249.282 38.451V39.114C249.282 43.8737 253.141 47.7323 257.901 47.7323L287.853 47.7318C293.535 53.8552 298.697 60.4551 303.268 67.4634L317.487 67.4635C322.614 67.4635 326.769 71.6189 326.769 76.7448V77.2628C326.769 81.4976 323.933 85.07 320.056 86.1841L306.961 86.1833C301.103 86.1833 296.354 90.9323 296.354 96.7905V100.105C296.354 105.963 301.103 110.712 306.961 110.712L351.979 110.712C356.587 111.867 360 116.036 360 121.002V121.594C360 127.452 355.251 132.201 349.392 132.201L326.068 132.2C326.532 136.909 326.769 141.683 326.769 146.512C326.769 227.428 260.129 293.023 177.923 293.023C112.17 293.023 56.3745 251.056 36.6751 192.85L31.0889 192.85C28.8307 192.85 27 191.02 27 188.762C27 187.039 28.0655 185.565 29.5736 184.963L36.4641 184.963C41.2241 184.963 45.0829 181.104 45.0829 176.344V175.681C45.0829 170.922 41.2241 167.063 36.4641 167.063L30.5298 167.063C30.5247 167.028 30.5197 166.992 30.5147 166.957L15.8149 166.955C12.0511 166.955 9 163.904 9 160.141C9 156.377 12.0511 153.326 15.8149 153.326L29.2351 153.327C29.13 151.068 29.0769 148.796 29.0769 146.512C29.0769 124.88 33.8397 104.343 42.3895 85.861L18.5635 85.8626C8.31118 85.8626 0 77.5519 0 67.3001V66.264C0 56.371 7.73958 48.2856 17.4944 47.7317L101.436 47.7323C105.098 47.7323 108.066 44.7642 108.066 41.1028C108.066 37.4414 105.098 34.4733 101.436 34.4733L82.0054 34.4727C82.1671 34.3384 82.3292 34.2044 82.4915 34.0707L72.8275 34.0725C65.8705 34.0725 60.2308 28.433 60.2308 21.4765V20.7734C60.2308 13.8168 65.8705 8.17739 72.8275 8.17739L128.772 8.17624C144.159 2.87955 160.699 0 177.923 0Z" fill="#F3F3FA"/>
<path fill-rule="evenodd" clip-rule="evenodd" d="M158.447 217C199.084 217 235.678 220.353 261.258 225.71C286.276 225.878 306.419 233.459 306.419 242.786C306.419 250.178 293.767 256.473 276.062 258.851C271.837 260.116 267.081 261.308 261.856 262.416C261.992 263.121 262.06 263.834 262.06 264.553C262.06 280.829 227.083 294.023 183.936 294.023C145.118 294.023 112.912 283.344 106.841 269.348C55.0442 265.369 18.4189 255.576 18.4189 244.126C18.4189 229.145 81.1114 217 158.447 217Z" fill="#E7EAF0"/>
<path d="M205.116 252.163C219.45 252.163 231.07 249.539 231.07 246.302C231.07 243.066 219.45 240.442 205.116 240.442C190.782 240.442 179.163 243.066 179.163 246.302C179.163 249.539 190.782 252.163 205.116 252.163Z" fill="#D1D6E2"/>
<path d="M242.652 112.707C247.046 112.707 250.608 116.269 250.608 120.663C250.608 125.057 247.046 128.619 242.652 128.619C238.258 128.619 234.696 125.057 234.696 120.663C234.696 116.269 238.258 112.707 242.652 112.707ZM242.652 116.022C240.089 116.022 238.011 118.1 238.011 120.663C238.011 123.226 240.089 125.304 242.652 125.304C245.215 125.304 247.293 123.226 247.293 120.663C247.293 118.1 245.215 116.022 242.652 116.022Z" fill="url(#paint0_linear_774_12326)"/>
<path d="M92.8177 132.596C95.0147 132.596 96.7956 134.377 96.7956 136.574C96.7956 138.771 95.0147 140.552 92.8177 140.552C90.6208 140.552 88.8398 138.771 88.8398 136.574C88.8398 134.377 90.6208 132.596 92.8177 132.596ZM92.8177 134.253C91.5362 134.253 90.4973 135.292 90.4973 136.574C90.4973 137.855 91.5362 138.894 92.8177 138.894C94.0993 138.894 95.1382 137.855 95.1382 136.574C95.1382 135.292 94.0993 134.253 92.8177 134.253Z" fill="url(#paint1_linear_774_12326)"/>
<path d="M229.392 184.971C230.857 184.971 232.044 186.159 232.044 187.623C232.044 189.088 230.857 190.275 229.392 190.275C227.928 190.275 226.74 189.088 226.74 187.623C226.74 186.159 227.928 184.971 229.392 184.971ZM229.392 186.076C228.538 186.076 227.845 186.769 227.845 187.623C227.845 188.477 228.538 189.17 229.392 189.17C230.247 189.17 230.939 188.477 230.939 187.623C230.939 186.769 230.247 186.076 229.392 186.076Z" fill="url(#paint2_linear_774_12326)"/>
<path d="M126.491 61.9541C127.59 61.9541 128.48 62.8446 128.48 63.9431V69.2469H133.784C134.883 69.2469 135.773 70.1374 135.773 71.2359C135.773 72.3343 134.883 73.2248 133.784 73.2248H128.48V78.5287C128.48 79.6272 127.59 80.5176 126.491 80.5176C125.393 80.5176 124.502 79.6272 124.502 78.5287V73.2248H119.198C118.1 73.2248 117.209 72.3343 117.209 71.2359C117.209 70.1374 118.1 69.2469 119.198 69.2469H124.502V63.9431C124.502 62.8446 125.393 61.9541 126.491 61.9541Z" fill="url(#paint3_linear_774_12326)"/>
<path d="M186.804 72.0005C187.536 72.0005 188.13 72.5941 188.13 73.3265V76.6407L191.445 76.6414C192.177 76.6414 192.771 77.235 192.771 77.9673C192.771 78.6997 192.177 79.2933 191.445 79.2933H188.13V82.6082C188.13 83.3405 187.536 83.9342 186.804 83.9342C186.071 83.9342 185.478 83.3405 185.478 82.6082V79.2933H182.163C181.431 79.2933 180.837 78.6997 180.837 77.9673C180.837 77.235 181.431 76.6414 182.163 76.6414H185.478V73.3265C185.478 72.5941 186.071 72.0005 186.804 72.0005Z" fill="url(#paint4_linear_774_12326)"/>
<path d="M210.166 147.183C210.898 147.183 211.492 147.777 211.492 148.509V151.823L214.807 151.824C215.539 151.824 216.133 152.418 216.133 153.15C216.133 153.882 215.539 154.476 214.807 154.476H211.492V157.791C211.492 158.523 210.898 159.117 210.166 159.117C209.434 159.117 208.84 158.523 208.84 157.791V154.476H205.525C204.793 154.476 204.199 153.882 204.199 153.15C204.199 152.418 204.793 151.824 205.525 151.824H208.84V148.509C208.84 147.777 209.434 147.183 210.166 147.183Z" fill="url(#paint5_linear_774_12326)"/>
<path d="M102.099 175.027C102.913 175.027 103.573 175.687 103.573 176.501L103.572 180.183L107.256 180.184C108.07 180.184 108.729 180.844 108.729 181.657C108.729 182.471 108.07 183.13 107.256 183.13L103.572 183.13L103.573 186.814C103.573 187.627 102.913 188.287 102.099 188.287C101.286 188.287 100.626 187.627 100.626 186.814L100.626 183.13L96.9428 183.13C96.1291 183.13 95.4695 182.471 95.4695 181.657C95.4695 180.844 96.1291 180.184 96.9428 180.184L100.626 180.183L100.626 176.501C100.626 175.687 101.286 175.027 102.099 175.027Z" fill="url(#paint6_linear_774_12326)"/>
<path d="M131.934 206.851C132.585 206.851 133.113 207.379 133.113 208.03L133.112 210.976L136.059 210.976C136.71 210.976 137.238 211.504 137.238 212.155C137.238 212.806 136.71 213.334 136.059 213.334L133.112 213.333L133.113 216.28C133.113 216.931 132.585 217.459 131.934 217.459C131.283 217.459 130.755 216.931 130.755 216.28L130.755 213.333L127.809 213.334C127.158 213.334 126.63 212.806 126.63 212.155C126.63 211.504 127.158 210.976 127.809 210.976L130.755 210.976L130.755 208.03C130.755 207.379 131.283 206.851 131.934 206.851Z" fill="url(#paint7_linear_774_12326)"/>
<path d="M295.166 157.63C301.519 157.63 306.669 152.48 306.669 146.127C306.669 139.774 301.519 134.624 295.166 134.624C288.813 134.624 283.663 139.774 283.663 146.127C283.663 152.48 288.813 157.63 295.166 157.63Z" fill="url(#paint8_linear_774_12326)"/>
<path d="M227.185 231.923C240.215 231.923 250.778 228.033 250.778 223.233C250.778 218.434 240.215 214.543 227.185 214.543C214.156 214.543 203.593 218.434 203.593 223.233C203.593 228.033 214.156 231.923 227.185 231.923Z" fill="url(#paint9_linear_774_12326)"/>
<path d="M228.63 182.862L233.336 180.52L230.501 174.826L225.796 177.169L228.63 182.862Z" fill="#FFB8B8"/>
<path d="M231.281 175.854L225.95 178.51C225.95 178.51 212.669 158.738 206.272 145.196C205.079 142.679 204.582 139.889 204.831 137.115L207.02 103.65H214.932C214.932 103.65 231.431 173.853 231.281 175.854Z" fill="#343434"/>
<path d="M232.104 176.994C232.59 176.695 233.488 177.238 234.348 179.164C235.209 181.091 236.051 181.951 234.535 182.905C233.02 183.859 224.247 188.068 221.76 189.303C220.918 189.714 220.693 188.76 220.618 188.536C220.3 187.544 220.3 185.824 222.863 184.196C224.734 182.849 225.669 180.006 226.604 179.557C227.54 179.108 228.269 179.782 229.672 178.977C230.518 178.361 231.329 177.699 232.104 176.994Z" fill="black"/>
<path d="M220.974 189.714H226.23V183.354H220.974V189.714Z" fill="#FFB8B8"/>
<path d="M232.254 106.418C232.254 106.418 229.897 130.212 228.027 136.029C228.027 136.029 232.142 152.49 226.568 184.664H220.544C220.544 184.664 211.397 115.603 213.324 106.437L232.254 106.418Z" fill="#5C5C5C"/>
<path d="M226.717 186.011C227.278 186.011 227.858 186.834 227.765 188.967C227.671 191.099 228.045 192.221 226.287 192.371C224.528 192.521 214.764 192.371 211.996 192.371C211.06 192.371 211.285 191.417 211.322 191.174C211.491 190.145 212.239 188.592 215.269 188.293C217.495 187.9 219.646 185.787 220.619 185.768C221.592 185.749 222.022 186.703 223.612 186.61C224.657 186.466 225.694 186.267 226.717 186.011Z" fill="#3E3E3E"/>
<path fill-rule="evenodd" clip-rule="evenodd" d="M213.399 51.6857C210.387 51.1058 210.2 40.0882 210.2 40.0882L210.237 38.386L214.82 36.2349L221.311 39.3774C221.311 39.3774 223.649 44.2596 222.546 46.8597C222.398 47.2102 222.125 47.5865 221.76 47.9691V58.5698H215.138V51.6062C214.479 51.7449 213.881 51.7822 213.399 51.6857Z" fill="#FFB8B8"/>
<path d="M183.451 62.777C184.461 65.0591 185.433 65.3397 185.826 65.3397C185.85 65.3398 185.873 65.3349 185.895 65.3253C185.917 65.3157 185.936 65.3016 185.952 65.2839C185.968 65.2663 185.98 65.2454 185.987 65.2228C185.995 65.2002 185.997 65.1762 185.995 65.1526C185.931 64.8757 185.931 64.5878 185.995 64.3109C186.012 64.2481 186.046 64.1913 186.093 64.1467C186.141 64.102 186.2 64.0713 186.263 64.0578C186.327 64.0443 186.393 64.0485 186.455 64.07C186.516 64.0916 186.57 64.1296 186.612 64.1799L189.006 66.8922L184.292 71.2881C183.048 69.6548 182.029 67.8617 181.262 65.957C181.009 65.3679 180.937 64.7165 181.056 64.0864C181.12 63.6369 181.345 63.2259 181.689 62.9299C182.033 62.634 182.473 62.4732 182.927 62.4777C183.034 62.4725 183.14 62.498 183.232 62.551C183.325 62.604 183.401 62.6824 183.451 62.777V62.777Z" fill="#FFB8B8"/>
<path d="M222.621 48.3379C222.621 48.3379 221.704 48.5998 221.274 46.4674C221.262 46.4053 221.27 46.3412 221.297 46.2841C221.324 46.227 221.368 46.1798 221.424 46.1494C221.711 46.0118 221.964 45.8132 222.167 45.5675C222.369 45.3218 222.516 45.0349 222.596 44.7267C222.676 44.4186 222.688 44.0967 222.631 43.7835C222.574 43.4703 222.449 43.1733 222.266 42.9133C221.237 40.8557 219.74 42.7262 219.366 43.8673C219.366 43.897 219.354 43.9256 219.333 43.9466C219.312 43.9677 219.284 43.9795 219.254 43.9795C219.224 43.9795 219.196 43.9677 219.175 43.9466C219.154 43.9256 219.142 43.897 219.142 43.8673C218.674 42.2212 217.009 37.5635 213.53 37.8067C209.359 38.106 210.5 41.66 210.5 41.66C210.5 41.66 209.901 41.5104 209.583 38.7981C209.583 38.7981 208.928 39.5276 209.583 41.155C209.583 41.155 209.078 41.155 208.891 39.9578C208.776 39.2969 208.808 38.6188 208.986 37.972C209.164 37.3251 209.483 36.7257 209.92 36.2167C210.929 35.1277 212.167 34.2761 213.545 33.723C214.923 33.1699 216.406 32.9291 217.888 33.018C218.795 33.0031 219.682 33.2856 220.414 33.8224C220.793 34.1043 221.112 34.4608 221.349 34.8699C222.297 34.8314 223.229 35.1294 223.978 35.7114C224.728 36.2933 225.248 37.1216 225.445 38.0498C226.025 41.342 225.445 43.8486 224.117 45.0083C223.23 45.8989 222.698 47.0829 222.621 48.3379V48.3379Z" fill="#2F2E41"/>
<path d="M206.216 60.5713L200.754 78.5661C200.696 78.7528 200.589 78.9205 200.444 79.0514C200.299 79.1823 200.121 79.2717 199.93 79.31C199.738 79.3483 199.54 79.3342 199.355 79.2691C199.171 79.204 199.008 79.0904 198.883 78.9402L189.006 66.7816L184.124 71.1026L198.696 89.3031C199.083 89.7845 199.638 90.1007 200.25 90.1876C200.861 90.2744 201.483 90.1254 201.988 89.7708L214.109 81.2597L206.216 60.5713Z" fill="url(#paint10_linear_774_12326)"/>
<path d="M256.44 62.1805C255.43 64.4626 254.458 64.7432 254.065 64.7432C254.041 64.7433 254.017 64.7384 253.996 64.7288C253.974 64.7192 253.954 64.7051 253.939 64.6875C253.923 64.6698 253.911 64.6489 253.903 64.6263C253.896 64.6037 253.894 64.5797 253.896 64.5561C253.96 64.2792 253.96 63.9913 253.896 63.7144C253.879 63.6516 253.845 63.5948 253.797 63.5502C253.75 63.5055 253.691 63.4748 253.628 63.4613C253.564 63.4478 253.498 63.452 253.436 63.4736C253.375 63.4951 253.32 63.5331 253.279 63.5834L250.885 66.2957L255.599 70.6916C256.85 69.0594 257.875 67.2663 258.648 65.3605C258.901 64.7714 258.973 64.12 258.853 63.4899C258.79 63.0404 258.565 62.6294 258.221 62.3335C257.877 62.0375 257.437 61.8767 256.983 61.8812C256.873 61.8723 256.763 61.896 256.667 61.9492C256.57 62.0024 256.491 62.0829 256.44 62.1805V62.1805Z" fill="#FFB8B8"/>
<path d="M234.143 60.9634L239.137 77.9668C239.195 78.1535 239.302 78.3212 239.447 78.4521C239.592 78.583 239.77 78.6724 239.961 78.7107C240.153 78.749 240.351 78.7349 240.536 78.6698C240.72 78.6047 240.883 78.4911 241.008 78.3409L250.885 66.1822L255.767 70.5032L241.12 88.7038C240.733 89.1852 240.178 89.5014 239.567 89.5883C238.955 89.6751 238.334 89.5261 237.828 89.1714L225.707 80.6604L234.143 60.9634Z" fill="url(#paint11_linear_774_12326)"/>
<path d="M205.953 61.1882C205.953 61.1882 206.87 54.8283 215.213 54.1362C215.213 54.1362 215.325 57.6154 217.083 57.7651C218.842 57.9147 221.834 52.2656 221.834 52.2656C221.834 52.2656 233.582 56.9046 234.311 61.6184C234.337 61.8359 234.337 62.0557 234.311 62.2731V106.643H205.953V61.1882Z" fill="url(#paint12_linear_774_12326)"/>
<path d="M186.231 213.231H123.923C120.482 213.231 117.692 210.462 117.692 207.046V163.754C117.692 160.338 120.482 157.569 123.923 157.569H130.154V145.2C130.154 131.535 141.313 120.461 155.077 120.461C168.841 120.461 180 131.535 180 145.2V157.569H186.231C189.672 157.569 192.462 160.338 192.462 163.754V207.046C192.462 210.462 189.672 213.231 186.231 213.231ZM151.962 187.925V197.769C151.962 199.475 153.355 200.861 155.077 200.861C156.799 200.861 158.192 199.475 158.192 197.769V187.925C161.813 186.644 164.423 183.247 164.423 179.215C164.423 174.091 160.24 169.938 155.077 169.938C149.914 169.938 145.731 174.091 145.731 179.215C145.731 183.247 148.341 186.644 151.962 187.925ZM167.539 145.2C167.539 138.369 161.959 132.831 155.077 132.831C148.195 132.831 142.615 138.369 142.615 145.2V157.569H167.539V145.2Z" fill="url(#paint13_linear_774_12326)"/>
<defs>
<linearGradient id="paint0_linear_774_12326" x1="242.652" y1="128.619" x2="242.652" y2="110.921" gradientUnits="userSpaceOnUse">
<stop stop-color="#A2ABB9"/>
<stop offset="1" stop-color="#E7EAF0"/>
</linearGradient>
<linearGradient id="paint1_linear_774_12326" x1="92.8177" y1="140.552" x2="92.8177" y2="131.703" gradientUnits="userSpaceOnUse">
<stop stop-color="#A2ABB9"/>
<stop offset="1" stop-color="#E7EAF0"/>
</linearGradient>
<linearGradient id="paint2_linear_774_12326" x1="229.392" y1="190.275" x2="229.392" y2="184.376" gradientUnits="userSpaceOnUse">
<stop stop-color="#A2ABB9"/>
<stop offset="1" stop-color="#E7EAF0"/>
</linearGradient>
<linearGradient id="paint3_linear_774_12326" x1="126.491" y1="80.5176" x2="126.491" y2="59.8702" gradientUnits="userSpaceOnUse">
<stop stop-color="#A2ABB9"/>
<stop offset="1" stop-color="#E7EAF0"/>
</linearGradient>
<linearGradient id="paint4_linear_774_12326" x1="186.804" y1="83.9342" x2="186.804" y2="70.6608" gradientUnits="userSpaceOnUse">
<stop stop-color="#A2ABB9"/>
<stop offset="1" stop-color="#E7EAF0"/>
</linearGradient>
<linearGradient id="paint5_linear_774_12326" x1="210.166" y1="159.117" x2="210.166" y2="145.843" gradientUnits="userSpaceOnUse">
<stop stop-color="#A2ABB9"/>
<stop offset="1" stop-color="#E7EAF0"/>
</linearGradient>
<linearGradient id="paint6_linear_774_12326" x1="102.099" y1="188.287" x2="102.099" y2="173.539" gradientUnits="userSpaceOnUse">
<stop stop-color="#A2ABB9"/>
<stop offset="1" stop-color="#E7EAF0"/>
</linearGradient>
<linearGradient id="paint7_linear_774_12326" x1="131.934" y1="217.459" x2="131.934" y2="205.66" gradientUnits="userSpaceOnUse">
<stop stop-color="#A2ABB9"/>
<stop offset="1" stop-color="#E7EAF0"/>
</linearGradient>
<linearGradient id="paint8_linear_774_12326" x1="5144.48" y1="1725.29" x2="5144.48" y2="1409.18" gradientUnits="userSpaceOnUse">
<stop stop-color="#C0C6D1"/>
<stop offset="1" stop-color="#DADEE5"/>
</linearGradient>
<linearGradient id="paint9_linear_774_12326" x1="227.185" y1="231.923" x2="227.185" y2="214.543" gradientUnits="userSpaceOnUse">
<stop stop-color="#5CAAE8" stop-opacity="0.3"/>
<stop offset="1" stop-color="white" stop-opacity="0"/>
</linearGradient>
<linearGradient id="paint10_linear_774_12326" x1="213.885" y1="81.6338" x2="187.005" y2="66.1269" gradientUnits="userSpaceOnUse">
<stop stop-color="#00BFA6"/>
<stop offset="1" stop-color="#00BFA6"/>
</linearGradient>
<linearGradient id="paint11_linear_774_12326" x1="75507.2" y1="1511.46" x2="75928.5" y2="1256.42" gradientUnits="userSpaceOnUse">
<stop stop-color="#00BFA6"/>
<stop offset="1" stop-color="#0AB0ED"/>
</linearGradient>
<linearGradient id="paint12_linear_774_12326" x1="-52070.5" y1="3194.72" x2="-51304.1" y2="2963.98" gradientUnits="userSpaceOnUse">
<stop stop-color="#00BFA6"/>
<stop offset="1" stop-color="#00BFA6"/>
</linearGradient>
<linearGradient id="paint13_linear_774_12326" x1="155.077" y1="213.231" x2="155.077" y2="110.047" gradientUnits="userSpaceOnUse">
<stop stop-color="#A2ABB9"/>
<stop offset="1" stop-color="#E7EAF0"/>
</linearGradient>
</defs>
</svg>
