<svg width="19" height="13" viewBox="0 0 19 13" fill="none" xmlns="http://www.w3.org/2000/svg">
<path d="M1.54264 11.2V3.5H0.742188V2.1H3.14354V0.7C3.14354 0.514349 3.22787 0.336301 3.37799 0.205025C3.5281 0.0737498 3.7317 0 3.94399 0H15.1503C15.3626 0 15.5662 0.0737498 15.7163 0.205025C15.8664 0.336301 15.9507 0.514349 15.9507 0.7V2.1H18.3521V3.5H17.5516V11.2H18.3521V12.6H0.742188V11.2H1.54264ZM10.3476 11.2V6.3H8.74669V11.2H10.3476ZM6.34534 11.2V6.3H4.74444V11.2H6.34534ZM14.3498 11.2V6.3H12.7489V11.2H14.3498ZM4.74444 1.4V2.1H14.3498V1.4H4.74444Z" fill="#1FB8AF"/>
</svg>
