<svg width="14" height="14" viewBox="1 2 15 15" fill="none" xmlns="http://www.w3.org/2000/svg">
<path opacity="0.5" d="M2 8.07018C2 7.56116 2.41687 7.14844 2.93122 7.14844H14.1053C14.6196 7.14844 15.0365 7.56116 15.0365 8.07018V14.5229C15.0365 15.0317 14.6196 15.4444 14.1053 15.4444H2.93122C2.41687 15.4444 2 15.0317 2 14.5226V8.06988V8.07018Z" fill="#00C5D2"></path>
<path d="M4.37012 5.30102C4.37012 4.93156 4.58463 4.59676 4.91765 4.44684L7.76909 3.16126C8.00448 3.05497 8.25981 3 8.51809 3C8.77637 3 9.0317 3.05497 9.2671 3.16126L12.1185 4.44684C12.2823 4.52149 12.421 4.64177 12.5181 4.79327C12.6152 4.94477 12.6666 5.12107 12.6661 5.30102V14.5092C12.6661 15.0254 12.2533 15.444 11.7443 15.444H5.29156C4.78284 15.444 4.37012 15.0254 4.37012 14.5092V5.30102Z" fill="#00C5D2"></path>
<path d="M6.64243 7.61167C6.64243 7.35598 6.43207 7.14858 6.17312 7.14858C5.91417 7.14858 5.7041 7.35598 5.7041 7.61167V8.07446C5.7041 8.33016 5.91417 8.53756 6.17312 8.53756C6.43237 8.53756 6.64243 8.33016 6.64243 8.07446V7.61167ZM8.98781 7.61167C8.98781 7.44605 8.89863 7.29316 8.75345 7.2105C8.68194 7.16982 8.60107 7.14844 8.5188 7.14844C8.43652 7.14844 8.35566 7.16982 8.28414 7.2105C8.13896 7.29346 8.04978 7.44605 8.04978 7.61167V8.07446C8.04978 8.33016 8.25985 8.53756 8.5188 8.53756C8.77775 8.53756 8.98781 8.33016 8.98781 8.07446V7.61167ZM11.3335 7.61167C11.3335 7.44605 11.244 7.29316 11.0988 7.2105C11.0274 7.16988 10.9465 7.14852 10.8643 7.14852C10.7821 7.14852 10.7013 7.16988 10.6298 7.2105C10.4846 7.29346 10.3952 7.44605 10.3952 7.61167V8.07446C10.3952 8.23979 10.4846 8.39267 10.6298 8.47534C10.775 8.5583 10.9537 8.5583 11.0988 8.47534C11.244 8.39267 11.3335 8.23979 11.3335 8.07446V7.61167ZM6.64243 9.92624C6.64243 9.67055 6.43207 9.46315 6.17312 9.46315C5.91417 9.46315 5.7041 9.67055 5.7041 9.92624V10.3893C5.7041 10.6447 5.91417 10.8521 6.17312 10.8521C6.43237 10.8521 6.64243 10.6447 6.64243 10.3893V9.92624ZM8.98781 9.92624C8.98781 9.76091 8.89863 9.60803 8.75345 9.52537C8.68194 9.48469 8.60107 9.4633 8.5188 9.4633C8.43652 9.4633 8.35566 9.48469 8.28414 9.52537C8.13896 9.60803 8.04978 9.76091 8.04978 9.92624V10.3893C8.04978 10.6447 8.25985 10.8521 8.5188 10.8521C8.77775 10.8521 8.98781 10.6447 8.98781 10.3893V9.92624ZM11.3335 9.92624C11.3335 9.76091 11.244 9.60803 11.0988 9.52537C11.0274 9.48474 10.9465 9.46339 10.8643 9.46339C10.7821 9.46339 10.7013 9.48474 10.6298 9.52537C10.4846 9.60803 10.3952 9.76091 10.3952 9.92624V10.3893C10.3952 10.5547 10.4846 10.7075 10.6298 10.7902C10.775 10.8729 10.9537 10.8729 11.0988 10.7902C11.244 10.7072 11.3335 10.5547 11.3335 10.3893V9.92624ZM6.64243 12.7039C6.51799 12.7039 6.39859 12.7528 6.31059 12.8396C6.2226 12.9264 6.17312 13.044 6.17312 13.167V14.0926C6.17312 14.2155 6.2226 14.3332 6.31059 14.42C6.39859 14.5068 6.51799 14.5557 6.64243 14.5557H10.3952C10.5196 14.5557 10.639 14.5068 10.727 14.42C10.815 14.3332 10.8645 14.2155 10.8645 14.0926V13.167C10.8645 13.044 10.815 12.9264 10.727 12.8396C10.6385 12.7525 10.5193 12.7038 10.3952 12.7039H6.64243Z" fill="white"></path>
</svg>