<svg width="239" height="239" viewBox="0 0 239 239" fill="none" xmlns="http://www.w3.org/2000/svg">
<g clip-path="url(#clip0_1610_1146)">
<path fill-rule="evenodd" clip-rule="evenodd" d="M231.531 213.561C231.531 229.035 219.728 243.877 198.718 254.821C177.707 265.762 149.212 271.91 119.5 271.91C89.7884 271.91 61.2928 265.762 40.2822 254.821C19.2717 243.877 7.46875 229.035 7.46875 213.561C7.46875 198.086 19.2717 183.244 40.2822 172.3C61.2928 161.359 89.7884 155.211 119.5 155.211C149.212 155.211 177.707 161.359 198.718 172.3C219.728 183.244 231.531 198.086 231.531 213.561Z" fill="url(#paint0_linear_1610_1146)"/>
<path fill-rule="evenodd" clip-rule="evenodd" d="M197.455 61.9006C197.455 65.2615 194.23 67.9479 190.157 67.9479H167.58C163.507 67.6795 160.111 65.1261 160.111 61.6322C160.111 59.3472 161.64 57.333 163.846 56.257C163.675 55.8532 163.507 55.4518 163.507 55.048C163.507 52.763 165.713 50.7465 168.598 50.7465C169.786 50.7465 170.806 51.1502 171.653 51.6871C173.69 48.5969 177.425 46.4473 181.838 46.4473C187.949 46.4473 192.871 50.6134 192.871 55.7202V56.257C195.588 57.1976 197.455 59.3472 197.455 61.9006Z" fill="url(#paint1_linear_1610_1146)"/>
<path fill-rule="evenodd" clip-rule="evenodd" d="M46.2642 34.7773C52.0222 34.7773 56.9212 38.458 58.7371 43.5951H67.3354C69.5901 43.5951 71.4199 45.4226 71.4199 47.6796V57.6644C71.4199 59.919 69.5901 61.7489 67.3354 61.7489H25.7135C23.4565 61.7489 21.629 59.919 21.629 57.6644V54.7679C20.6418 53.1808 20.0723 51.3066 20.0723 49.2994C20.0723 43.5718 24.7169 38.9272 30.4445 38.9272C32.2977 38.9272 34.0365 39.4126 35.5396 40.2622C37.9436 36.9386 41.8507 34.7773 46.2642 34.7773Z" fill="url(#paint2_linear_1610_1146)"/>
<path fill-rule="evenodd" clip-rule="evenodd" d="M56.3891 186.02C56.3891 186.535 55.0517 186.953 53.4016 186.953C51.7514 186.953 50.4141 186.535 50.4141 186.02C50.4141 185.504 51.7514 185.086 53.4016 185.086C55.0517 185.086 56.3891 185.504 56.3891 186.02Z" fill="#C8EDDD"/>
<path d="M50.2297 185.653C50.6358 178.861 52.3397 174.929 55.3435 173.857C56.5245 173.701 57.8409 173.463 56.9236 174.994C56.004 176.525 53.5463 175.93 51.0863 185.651C50.8646 186.066 50.5775 186.066 50.2297 185.653Z" fill="url(#paint3_linear_1610_1146)"/>
<path d="M50.1736 185.569C49.3754 179.223 48.7219 175.231 48.2131 173.598C47.4499 171.145 45.8254 166.423 49.205 168.208C52.587 169.994 52.9861 179.157 51.4246 184.733C50.9392 186.145 50.5214 186.423 50.1736 185.569Z" fill="url(#paint4_linear_1610_1146)"/>
<path d="M182.98 177.353C182.392 174.678 180.676 172.806 177.831 171.742C174.582 170.699 172.801 169.457 174.834 168.556C176.552 168.421 180.212 167.083 182.98 175.07C183.171 175.843 183.171 176.604 182.98 177.353Z" fill="url(#paint5_linear_1610_1146)"/>
<path d="M183.125 177.778C181.414 171.39 179.47 166.727 177.292 163.789C175.695 161.781 175.808 158.906 177.292 158.257C178.814 158.087 181.617 157.825 183.729 168.832C183.862 169.591 184.607 174.021 183.729 176.878C183.598 177.27 183.398 177.571 183.125 177.778Z" fill="url(#paint6_linear_1610_1146)"/>
<path d="M183.519 176.336C184.294 173.477 184.194 169.75 183.225 165.149C181.741 160.689 179.206 155.204 183.825 155.078C185.697 155.333 187.961 157.295 187.104 167.084C186.584 171.033 185.678 173.365 184.728 176.336C184.397 176.52 183.993 176.52 183.519 176.336Z" fill="url(#paint7_linear_1610_1146)"/>
<path d="M184.422 177.445C184.114 169.364 185.592 163.564 188.859 160.047C189.741 158.871 193.1 157.769 193.086 161.454C192.736 163.039 191.987 166.423 187.662 171.584C186.238 173.446 185.3 176.168 185.293 176.807C185.286 177.232 184.996 177.445 184.422 177.445Z" fill="url(#paint8_linear_1610_1146)"/>
<path d="M167.608 178.511C170.843 177.909 172.629 177.398 172.962 176.975C173.462 176.345 177.866 173.633 180.611 175.918C181.208 175.15 183.124 174.553 184.221 175.918C184.723 173.761 187.855 172.38 189.216 172.604C190.75 172.485 195.278 172.534 195.616 178.511C194.381 178.541 185.045 178.541 167.608 178.511Z" fill="url(#paint9_linear_1610_1146)"/>
<path d="M90.533 173.581L99.9996 160.852L195.588 195.871L152.176 233.66L90.533 173.581Z" fill="url(#paint10_linear_1610_1146)" fill-opacity="0.3"/>
<path d="M127.44 132.197L91.3147 127.652V145.675L126.861 149.828L127.44 132.197Z" fill="url(#paint11_linear_1610_1146)"/>
<path d="M62.7024 133.532L91.31 127.652L91.3147 147.916L62.7024 153.76V133.532Z" fill="url(#paint12_linear_1610_1146)"/>
<path d="M96.3235 141.304L127.081 133.375V170.868L96.3235 178.797V141.304Z" fill="url(#paint13_linear_1610_1146)"/>
<path d="M63.0596 134.447L96.6806 141.153L96.4846 178.798L63.0596 171.331V134.447Z" fill="url(#paint14_linear_1610_1146)"/>
<path d="M96.6806 141.307L62.7632 134.09L55.5488 147.384L90.0428 155.551L96.6806 141.307Z" fill="url(#paint15_linear_1610_1146)"/>
<path d="M96.6807 141.142L127.471 132.658L135.308 145.862L105.818 155.55L96.6807 141.142Z" fill="url(#paint16_linear_1610_1146)"/>
<path d="M63.867 79.3574C55.1356 91.8606 58.8443 101.192 74.9931 107.354" stroke="url(#paint17_linear_1610_1146)"/>
<path d="M60.8633 105.246C63.8181 108.92 66.5022 110.757 68.9179 110.757" stroke="url(#paint18_linear_1610_1146)"/>
<path d="M132.171 63.334C132.565 74.4461 122.123 82.2276 100.84 86.6785" stroke="url(#paint19_linear_1610_1146)"/>
<path d="M135.009 77.3164C129.788 81.6926 125.706 83.8819 122.76 83.8819" stroke="url(#paint20_linear_1610_1146)"/>
<path d="M126.366 102.729C105.813 100.248 92.8971 105.541 87.6177 118.607" stroke="url(#paint21_linear_1610_1146)"/>
<path d="M63.3862 87.9434C75.5276 89.8456 80.499 93.2065 78.2957 98.0215C76.0948 102.839 71.1257 99.4779 63.3862 87.9434Z" fill="url(#paint22_linear_1610_1146)"/>
<path d="M106.992 77.3159C108.768 71.0282 113.411 68.9322 120.919 71.0282C120.595 73.913 115.952 76.0089 106.992 77.3159Z" fill="url(#paint23_linear_1610_1146)"/>
<path d="M90.7102 123.256C96.2534 112.473 104.002 109.404 113.954 114.044C109.312 122.633 101.563 125.704 90.7102 123.256Z" fill="url(#paint24_linear_1610_1146)"/>
<path d="M105.265 80.6004C106.623 77.6876 108.411 75.8228 110.628 75.0059" stroke="url(#paint25_linear_1610_1146)"/>
<path d="M74.9932 96.5996C77.5325 97.1878 78.8022 99.6291 78.8022 103.926" stroke="url(#paint26_linear_1610_1146)"/>
<path d="M88.3318 126.705C90.3927 122.77 93.2565 120.803 96.9162 120.803" stroke="url(#paint27_linear_1610_1146)"/>
<path fill-rule="evenodd" clip-rule="evenodd" d="M167.113 193.021C167.113 195.857 158.127 198.156 147.041 198.156C135.955 198.156 126.969 195.857 126.969 193.021C126.969 190.186 135.955 187.887 147.041 187.887C158.127 187.887 167.113 190.186 167.113 193.021Z" fill="#C8EDDD"/>
<path fill-rule="evenodd" clip-rule="evenodd" d="M144.567 168.633L147.737 170.691L145.678 173.863L142.509 171.805L144.567 168.633Z" fill="url(#paint28_linear_1610_1146)"/>
<path fill-rule="evenodd" clip-rule="evenodd" d="M151.347 169.553C150.054 171.544 147.587 172.235 145.835 171.098C144.084 169.959 143.713 167.425 145.004 165.436C146.297 163.445 148.764 162.754 150.517 163.891C152.267 165.028 152.638 167.562 151.347 169.553Z" fill="url(#paint29_linear_1610_1146)"/>
<path fill-rule="evenodd" clip-rule="evenodd" d="M152.545 167.065C150.878 167.704 149.405 167.786 148.131 167.312C147.622 167.249 147.158 166.122 146.472 166.789C146.079 167.282 145.907 168.195 146.411 168.337C145.963 168.703 145.207 168.953 144.142 169.088C143.188 168.694 142.504 168.02 142.095 167.065C141.348 165.002 142.819 160.6 146.724 160.462C146.819 160.467 151.347 159.617 152.778 164.28C153.158 165.354 153.079 166.281 152.545 167.065Z" fill="#483029"/>
<path fill-rule="evenodd" clip-rule="evenodd" d="M148.745 161.454C148.168 162.338 146.987 162.591 146.103 162.014C145.218 161.44 144.966 160.259 145.54 159.374C146.114 158.49 147.298 158.238 148.182 158.812C149.067 159.386 149.319 160.569 148.745 161.454Z" fill="#483029"/>
<path d="M159.21 189.906L159.425 191.309C160.298 191.337 161.248 191.594 162.275 192.079C162.938 192.504 162.966 192.695 162.987 193.062C163.001 193.304 161.134 193.304 157.385 193.062V189.393L159.21 189.906Z" fill="url(#paint30_linear_1610_1146)"/>
<path d="M144.266 184.568C145.89 182.176 149.912 176.637 154.517 177.102C158.73 177.529 160.069 190.616 160.069 190.616L156.636 190.655L153.315 182.75L146.07 191.876L140.793 189.845L144.266 184.568Z" fill="url(#paint31_linear_1610_1146)"/>
<path d="M131.935 184.422C130.902 188.033 130.67 193.669 134.276 194.463C136.26 194.899 138.839 194.621 145.508 194.661C152.096 194.701 156.384 195.018 156.344 191.405C156.305 187.794 148.327 188.707 146.619 188.548C144.912 188.39 137.014 188.31 137.014 188.31L131.935 184.422Z" fill="url(#paint32_linear_1610_1146)"/>
<path fill-rule="evenodd" clip-rule="evenodd" d="M146.222 173.883C146.222 173.883 145.785 173.456 144.826 172.592C143.001 171.255 143.704 170.158 143.704 170.158C143.704 170.158 139.22 169.736 135.565 176.159C133.364 180.026 130.86 186.113 130.86 186.113C130.86 186.113 133.415 189.21 142.625 188.377C142.625 188.377 145.389 183.112 146.817 180.572C147.772 178.878 147.573 176.649 146.222 173.883Z" fill="url(#paint33_linear_1610_1146)"/>
<path fill-rule="evenodd" clip-rule="evenodd" d="M162.69 180.1L158.305 181.696L158.466 182.135L162.852 180.538L162.69 180.1Z" fill="#483029"/>
<path fill-rule="evenodd" clip-rule="evenodd" d="M157.542 182.133C157.85 181.975 158.174 181.814 158.517 181.648C158.61 181.543 158.748 181.443 158.926 181.345C159.283 181.237 159.455 181.254 159.444 181.398C159.432 181.543 159.355 181.66 159.215 181.746L159.815 181.618L160.382 181.335C160.984 181.053 161.281 181.16 161.271 181.655C161.15 182.21 160.557 182.824 159.381 182.785C159.103 182.691 158.722 182.712 158.242 182.848L157.542 182.133Z" fill="#FEE0BC"/>
<path fill-rule="evenodd" clip-rule="evenodd" d="M158.078 181.735L148.203 185.465L145.589 175.12C144.807 173.314 143.433 172.555 141.465 172.842C140.069 173.482 139.428 174.815 139.535 176.257C139.642 177.702 141.708 183.763 143.808 186.459C145.396 188.289 146.355 189.554 148.642 188.968C149.823 188.564 153.242 186.86 158.898 183.856L158.078 181.735Z" fill="url(#paint34_linear_1610_1146)"/>
</g>
<defs>
<linearGradient id="paint0_linear_1610_1146" x1="119.5" y1="120.335" x2="119.5" y2="206.617" gradientUnits="userSpaceOnUse">
<stop stop-color="#C8EDDD"/>
<stop offset="1" stop-color="#EFFFFA" stop-opacity="0.4"/>
</linearGradient>
<linearGradient id="paint1_linear_1610_1146" x1="178.783" y1="53.7034" x2="179.235" y2="61.5118" gradientUnits="userSpaceOnUse">
<stop stop-color="#E6F5F0"/>
<stop offset="1" stop-color="#EFFFFA" stop-opacity="0"/>
</linearGradient>
<linearGradient id="paint2_linear_1610_1146" x1="45.7461" y1="44.6151" x2="46.2647" y2="52.7978" gradientUnits="userSpaceOnUse">
<stop stop-color="#E6F5F0"/>
<stop offset="1" stop-color="#EFFFFA" stop-opacity="0"/>
</linearGradient>
<linearGradient id="paint3_linear_1610_1146" x1="53.7303" y1="175.147" x2="55.2622" y2="185.816" gradientUnits="userSpaceOnUse">
<stop stop-color="#C8EDDD"/>
<stop offset="1" stop-color="#09958D"/>
</linearGradient>
<linearGradient id="paint4_linear_1610_1146" x1="49.7239" y1="169.911" x2="50.9721" y2="191.801" gradientUnits="userSpaceOnUse">
<stop stop-color="#C8EDDD"/>
<stop offset="1" stop-color="#09958D"/>
</linearGradient>
<linearGradient id="paint5_linear_1610_1146" x1="178.547" y1="169.564" x2="180.682" y2="179.925" gradientUnits="userSpaceOnUse">
<stop stop-color="#C8EDDD"/>
<stop offset="1" stop-color="#09958D"/>
</linearGradient>
<linearGradient id="paint6_linear_1610_1146" x1="180.143" y1="160.461" x2="182.078" y2="183.884" gradientUnits="userSpaceOnUse">
<stop stop-color="#C8EDDD"/>
<stop offset="1" stop-color="#09958D"/>
</linearGradient>
<linearGradient id="paint7_linear_1610_1146" x1="184.236" y1="157.538" x2="185.715" y2="183.217" gradientUnits="userSpaceOnUse">
<stop stop-color="#C8EDDD"/>
<stop offset="1" stop-color="#09958D"/>
</linearGradient>
<linearGradient id="paint8_linear_1610_1146" x1="188.734" y1="161.055" x2="190.833" y2="183.194" gradientUnits="userSpaceOnUse">
<stop stop-color="#C8EDDD"/>
<stop offset="1" stop-color="#09958D"/>
</linearGradient>
<linearGradient id="paint9_linear_1610_1146" x1="181.612" y1="175.452" x2="184.995" y2="179.019" gradientUnits="userSpaceOnUse">
<stop stop-color="#C8EDDD"/>
<stop offset="1" stop-color="#09958D"/>
</linearGradient>
<linearGradient id="paint10_linear_1610_1146" x1="147.715" y1="94.1351" x2="146.437" y2="229.211" gradientUnits="userSpaceOnUse">
<stop stop-color="#5CEFE7"/>
<stop offset="1" stop-color="#D5FFED" stop-opacity="0.4"/>
</linearGradient>
<linearGradient id="paint11_linear_1610_1146" x1="97.7896" y1="134.562" x2="121.199" y2="163.08" gradientUnits="userSpaceOnUse">
<stop stop-color="#C8EDDD"/>
<stop offset="1" stop-color="#09958D"/>
</linearGradient>
<linearGradient id="paint12_linear_1610_1146" x1="67.8307" y1="129.837" x2="89.1416" y2="153.53" gradientUnits="userSpaceOnUse">
<stop stop-color="#C8EDDD"/>
<stop offset="1" stop-color="#09958D"/>
</linearGradient>
<linearGradient id="paint13_linear_1610_1146" x1="116.182" y1="187.747" x2="88.4098" y2="109.832" gradientUnits="userSpaceOnUse">
<stop stop-color="#C8EDDD"/>
<stop offset="1" stop-color="#09958D"/>
</linearGradient>
<linearGradient id="paint14_linear_1610_1146" x1="63.0287" y1="106.976" x2="90.8375" y2="182.253" gradientUnits="userSpaceOnUse">
<stop stop-color="#09958D"/>
<stop offset="1" stop-color="#A9EED1"/>
</linearGradient>
<linearGradient id="paint15_linear_1610_1146" x1="62.921" y1="141.899" x2="89.397" y2="169.311" gradientUnits="userSpaceOnUse">
<stop stop-color="#C8EDDD"/>
<stop offset="1" stop-color="#09958D"/>
</linearGradient>
<linearGradient id="paint16_linear_1610_1146" x1="103.604" y1="140.085" x2="106.85" y2="156.57" gradientUnits="userSpaceOnUse">
<stop stop-color="#C8EDDD"/>
<stop offset="1" stop-color="#09958D"/>
</linearGradient>
<linearGradient id="paint17_linear_1610_1146" x1="69.278" y1="95.3145" x2="55.6619" y2="111.798" gradientUnits="userSpaceOnUse">
<stop stop-color="#56C495" stop-opacity="0.5"/>
<stop offset="1" stop-color="#56C495"/>
<stop offset="1" stop-color="#09958D"/>
</linearGradient>
<linearGradient id="paint18_linear_1610_1146" x1="68.3763" y1="108.182" x2="59.6329" y2="112.247" gradientUnits="userSpaceOnUse">
<stop stop-color="#56C495" stop-opacity="0.5"/>
<stop offset="1" stop-color="#56C495"/>
<stop offset="1" stop-color="#09958D"/>
</linearGradient>
<linearGradient id="paint19_linear_1610_1146" x1="130.074" y1="75.9126" x2="95.9146" y2="93.2134" gradientUnits="userSpaceOnUse">
<stop stop-color="#56C495" stop-opacity="0.5"/>
<stop offset="1" stop-color="#56C495"/>
<stop offset="1" stop-color="#09958D"/>
</linearGradient>
<linearGradient id="paint20_linear_1610_1146" x1="134.186" y1="80.7311" x2="120.727" y2="85.6331" gradientUnits="userSpaceOnUse">
<stop stop-color="#56C495" stop-opacity="0.5"/>
<stop offset="1" stop-color="#56C495"/>
<stop offset="1" stop-color="#09958D"/>
</linearGradient>
<linearGradient id="paint21_linear_1610_1146" x1="123.761" y1="110.579" x2="80.2409" y2="123.158" gradientUnits="userSpaceOnUse">
<stop stop-color="#56C495" stop-opacity="0.5"/>
<stop offset="1" stop-color="#56C495"/>
<stop offset="1" stop-color="#09958D"/>
</linearGradient>
<linearGradient id="paint22_linear_1610_1146" x1="66.1495" y1="90.2208" x2="77.8393" y2="108.587" gradientUnits="userSpaceOnUse">
<stop stop-color="#56C495"/>
<stop offset="1" stop-color="#09958D"/>
</linearGradient>
<linearGradient id="paint23_linear_1610_1146" x1="109.488" y1="72.8663" x2="118.488" y2="81.9405" gradientUnits="userSpaceOnUse">
<stop stop-color="#C8EDDD"/>
<stop offset="1" stop-color="#09958D"/>
</linearGradient>
<linearGradient id="paint24_linear_1610_1146" x1="94.8763" y1="116.362" x2="109.839" y2="131.845" gradientUnits="userSpaceOnUse">
<stop stop-color="#C8EDDD"/>
<stop offset="1" stop-color="#09958D"/>
</linearGradient>
<linearGradient id="paint25_linear_1610_1146" x1="110.081" y1="78.1946" x2="103.994" y2="82.5093" gradientUnits="userSpaceOnUse">
<stop stop-color="#56C495" stop-opacity="0.5"/>
<stop offset="1" stop-color="#56C495"/>
<stop offset="1" stop-color="#09958D"/>
</linearGradient>
<linearGradient id="paint26_linear_1610_1146" x1="77.3432" y1="100.775" x2="74.0064" y2="105.14" gradientUnits="userSpaceOnUse">
<stop stop-color="#56C495" stop-opacity="0.5"/>
<stop offset="1" stop-color="#56C495"/>
<stop offset="1" stop-color="#09958D"/>
</linearGradient>
<linearGradient id="paint27_linear_1610_1146" x1="96.339" y1="123.949" x2="87.0204" y2="128.305" gradientUnits="userSpaceOnUse">
<stop stop-color="#56C495" stop-opacity="0.5"/>
<stop offset="1" stop-color="#56C495"/>
<stop offset="1" stop-color="#09958D"/>
</linearGradient>
<linearGradient id="paint28_linear_1610_1146" x1="145.123" y1="169.309" x2="145.123" y2="173.863" gradientUnits="userSpaceOnUse">
<stop stop-color="#FFCDA5"/>
<stop offset="1" stop-color="#FFE8D1"/>
</linearGradient>
<linearGradient id="paint29_linear_1610_1146" x1="147.57" y1="163.344" x2="151.55" y2="171.488" gradientUnits="userSpaceOnUse">
<stop stop-color="#FFF2DF"/>
<stop offset="1" stop-color="#FEE0BC"/>
</linearGradient>
<linearGradient id="paint30_linear_1610_1146" x1="162.183" y1="189.844" x2="158.714" y2="193.492" gradientUnits="userSpaceOnUse">
<stop stop-color="#C8EDDD"/>
<stop offset="1" stop-color="#09958D"/>
</linearGradient>
<linearGradient id="paint31_linear_1610_1146" x1="174.03" y1="183.298" x2="143.594" y2="191.251" gradientUnits="userSpaceOnUse">
<stop stop-color="#C8EDDD"/>
<stop offset="1" stop-color="#09958D"/>
</linearGradient>
<linearGradient id="paint32_linear_1610_1146" x1="171.466" y1="189.822" x2="129.739" y2="188.309" gradientUnits="userSpaceOnUse">
<stop stop-color="#C8EDDD"/>
<stop offset="1" stop-color="#09958D"/>
</linearGradient>
<linearGradient id="paint33_linear_1610_1146" x1="139.135" y1="170.152" x2="139.135" y2="188.519" gradientUnits="userSpaceOnUse">
<stop stop-color="#FEE127"/>
<stop offset="1" stop-color="#F9AB21"/>
</linearGradient>
<linearGradient id="paint34_linear_1610_1146" x1="141.139" y1="178.083" x2="156.849" y2="186.894" gradientUnits="userSpaceOnUse">
<stop stop-color="#FEE127"/>
<stop offset="1" stop-color="#F9AB21"/>
</linearGradient>
<clipPath id="clip0_1610_1146">
<rect width="239" height="239" fill="white"/>
</clipPath>
</defs>
</svg>
