<svg width="15" height="17" viewBox="0 0 15 17" fill="none" xmlns="http://www.w3.org/2000/svg">
<g clip-path="url(#clip0_1288_22491)">
<path d="M7.09635 1.66211H12.97V15.7579L7.09635 12.2339L1.22266 15.7579V1.66211H7.09635Z" fill="#FF804A"/>
<path d="M7.09635 12.2339L1.22266 15.7579V1.66211H7.09635V12.2339Z" fill="#FF9669"/>
</g>
<path d="M9.12223 9.66122V10.5972H4.29823V9.83222L7.12423 6.95222C7.42423 6.65222 7.63723 6.38222 7.76323 6.14222C7.88923 5.90222 7.95223 5.64422 7.95223 5.36822C7.95223 4.97222 7.83523 4.65722 7.60123 4.42322C7.37323 4.18922 7.06123 4.07222 6.66523 4.07222C6.29923 4.07222 5.99323 4.16822 5.74723 4.36022C5.50123 4.54622 5.32423 4.81322 5.21623 5.16122L4.37923 4.66622C4.54123 4.16822 4.82023 3.79022 5.21623 3.53222C5.61223 3.26822 6.10723 3.13622 6.70123 3.13622C7.16323 3.13622 7.57423 3.23222 7.93423 3.42422C8.30023 3.61022 8.58223 3.87422 8.78023 4.21622C8.98423 4.55222 9.08623 4.93322 9.08623 5.35922C9.08623 5.76722 8.98423 6.14222 8.78023 6.48422C8.57623 6.82022 8.24323 7.22522 7.78123 7.69922L5.88223 9.66122H9.12223Z" fill="white"/>
<defs>
<clipPath id="clip0_1288_22491">
<rect width="14.0969" height="14.0957" fill="white" transform="translate(0.0478516 1.95508)"/>
</clipPath>
</defs>
</svg>
