<svg width="15" height="17" viewBox="0 0 15 17" fill="none" xmlns="http://www.w3.org/2000/svg">
<g clip-path="url(#clip0_1288_22501)">
<path d="M7.09635 1.66211H12.97V15.7579L7.09635 12.2339L1.22266 15.7579V1.66211H7.09635Z" fill="#FFC64A"/>
<path d="M7.09635 12.2339L1.22266 15.7579V1.66211H7.09635V12.2339Z" fill="#FAD37D"/>
</g>
<path d="M9.14923 8.36522C9.14923 8.82122 9.04423 9.22922 8.83423 9.58922C8.63023 9.94322 8.34223 10.2192 7.97023 10.4172C7.59823 10.6152 7.17223 10.7142 6.69223 10.7142C6.12223 10.7142 5.63023 10.5822 5.21623 10.3182C4.80823 10.0602 4.52923 9.70322 4.37923 9.24722L5.21623 8.75222C5.33023 9.07622 5.51323 9.32822 5.76523 9.50822C6.01723 9.68822 6.32623 9.77822 6.69223 9.77822C7.10023 9.77822 7.42723 9.64922 7.67323 9.39122C7.92523 9.12722 8.05123 8.78522 8.05123 8.36522C8.05123 7.93322 7.92523 7.59422 7.67323 7.34822C7.42723 7.10222 7.08823 6.97922 6.65623 6.97922C6.21823 6.97922 5.89123 7.12022 5.67523 7.40222L5.03623 6.70922L7.43023 4.19822H4.67623V3.25322H8.81623V4.01822L6.89923 6.04322C7.33123 6.04922 7.71823 6.15122 8.06023 6.34922C8.40223 6.54722 8.66923 6.82322 8.86123 7.17722C9.05323 7.52522 9.14923 7.92122 9.14923 8.36522Z" fill="white"/>
<defs>
<clipPath id="clip0_1288_22501">
<rect width="14.0969" height="14.0957" fill="white" transform="translate(0.0478516 1.95508)"/>
</clipPath>
</defs>
</svg>
