<svg width="15" height="17" viewBox="0 0 15 17" fill="none" xmlns="http://www.w3.org/2000/svg">
<g clip-path="url(#clip0_1288_22506)">
<path d="M7.09635 1.66211H12.97V15.7579L7.09635 12.2339L1.22266 15.7579V1.66211H7.09635Z" fill="#749997"/>
<path d="M7.09635 12.2339L1.22266 15.7579V1.66211H7.09635V12.2339Z" fill="#A9C7C5"/>
</g>
<path d="M9.14923 8.36522C9.14923 8.82122 9.04423 9.22622 8.83423 9.58022C8.63023 9.93422 8.33923 10.2102 7.96123 10.4082C7.58323 10.6122 7.15423 10.7142 6.67423 10.7142C6.09223 10.7142 5.59723 10.5792 5.18923 10.3092C4.78723 10.0392 4.52023 9.68822 4.38823 9.25622L5.22523 8.76122C5.32723 9.07922 5.50423 9.32822 5.75623 9.50822C6.00823 9.68822 6.31423 9.77822 6.67423 9.77822C7.08223 9.77822 7.41523 9.64922 7.67323 9.39122C7.93123 9.12722 8.06023 8.78522 8.06023 8.36522C8.06023 7.95122 7.93123 7.61822 7.67323 7.36622C7.41523 7.10822 7.08523 6.97922 6.68323 6.97922C6.41323 6.97922 6.18223 7.03022 5.99023 7.13222C5.80423 7.23422 5.66323 7.36922 5.56723 7.53722L4.65823 7.30322L5.07223 3.25322H8.83423V4.19822H6.04423L5.81923 6.37622C6.15523 6.15422 6.50623 6.04322 6.87223 6.04322C7.31623 6.04322 7.70923 6.14522 8.05123 6.34922C8.39923 6.54722 8.66923 6.82322 8.86123 7.17722C9.05323 7.53122 9.14923 7.92722 9.14923 8.36522Z" fill="white"/>
<defs>
<clipPath id="clip0_1288_22506">
<rect width="14.0969" height="14.0957" fill="white" transform="translate(0.0478516 1.95508)"/>
</clipPath>
</defs>
</svg>
