<svg width="21" height="21" viewBox="0 0 21 21" fill="none" xmlns="http://www.w3.org/2000/svg">
<path d="M15.1208 5.80078H13.6408V13.8008C13.6408 13.9608 13.5208 14.1208 13.3208 14.1208H6.80078V15.6008C6.80078 15.7608 6.92078 15.9208 7.12078 15.9208H15.1608C15.3208 15.9208 15.4808 15.8008 15.4808 15.6008V6.08078C15.4408 5.92078 15.2808 5.80078 15.1208 5.80078Z" fill="#FFCE2B"/>
<path d="M13.24 14.08H5.4C5.16 14.08 5 13.92 5 13.68V4.4C5 4.16 5.16 4 5.4 4H13.24C13.48 4 13.64 4.16 13.64 4.4V13.68C13.64 13.88 13.48 14.08 13.24 14.08Z" fill="#56C495"/>
</svg>
