<svg width="20" height="20" viewBox="0 0 20 20" fill="none" xmlns="http://www.w3.org/2000/svg">
<path d="M8.20869 1.83801H2.785C1.94248 1.83801 1.31061 2.46988 1.31061 3.20709V8.31484C1.31061 9.10471 1.99512 9.68393 2.785 9.68393H9.68312V3.20697C9.73576 2.46977 9.05125 1.83789 8.20873 1.83789L8.20869 1.83801ZM1.31059 12.2115V17.3193C1.31059 18.1091 1.9951 18.6884 2.78498 18.6884H8.20867C9.05119 18.6884 9.68307 18.0565 9.68307 17.3193V10.7898H2.78494C1.99508 10.7898 1.31055 11.4217 1.31055 12.2116L1.31059 12.2115ZM17.7397 10.7898H10.789V17.2667C10.789 18.0566 11.4735 18.6358 12.2634 18.6358H17.6871C18.5296 18.6358 19.1615 18.0039 19.1615 17.2667V12.159C19.2141 11.4218 18.5296 10.7899 17.7397 10.7899L17.7397 10.7898ZM17.7397 1.83801H12.3161C11.4735 1.83801 10.8417 2.46988 10.8417 3.20709V9.68404H17.7398C18.5823 9.68404 19.2142 9.05217 19.2142 8.31496V3.20721C19.2142 2.47 18.5297 1.83813 17.7398 1.83813L17.7397 1.83801ZM16.7393 8.73617H11.8421V4.2076C11.8421 3.41773 12.5266 2.83852 13.3165 2.83852H16.7392C17.5817 2.83852 18.2136 3.47039 18.2136 4.2076V7.36703C18.2136 8.15689 17.5291 8.73611 16.7392 8.73611L16.7393 8.73617Z" fill="#09958D"/>
</svg>
