<svg width="16" height="16" viewBox="0 0 16 16" fill="none" xmlns="http://www.w3.org/2000/svg">
<path d="M7.80674 7.89075C10.2707 7.89075 12.2677 6.12982 12.2677 3.95709C12.2677 1.78436 10.2707 0.0234375 7.80674 0.0234375C5.34274 0.0234375 3.34575 1.78436 3.34575 3.95709C3.34575 6.12982 5.34274 7.89075 7.80674 7.89075ZM10.9294 8.87416H10.3474C9.57371 9.18762 8.71288 9.36587 7.80674 9.36587C6.9006 9.36587 6.04325 9.18762 5.26606 8.87416H4.68404C2.09806 8.87416 0 10.7242 0 13.0045V14.2829C0 15.0973 0.749308 15.7581 1.67287 15.7581H13.9406C14.8642 15.7581 15.6135 15.0973 15.6135 14.2829V13.0045C15.6135 10.7242 13.5154 8.87416 10.9294 8.87416Z" fill="#1FB8AF"/>
</svg>
