<svg width="24" height="24" viewBox="0 0 24 24" fill="none" xmlns="http://www.w3.org/2000/svg">
<g clip-path="url(#clip0_1035_181)">
<path d="M18.5819 19.5676C18.1323 20.5417 18.3571 21.7405 19.2562 22.4148C20.1553 23.0892 21.3542 23.0892 22.2533 22.4898C23.1524 21.8154 23.4521 20.6915 23.0775 19.7175C22.6279 18.7434 21.5789 18.144 20.455 18.2939C20.0055 18.3688 19.5559 18.5186 19.1813 18.8933L16.3341 16.7204C16.1842 16.6455 16.0344 16.5705 15.8096 16.6455C15.6597 16.7204 15.5099 16.8702 15.5099 17.0201C15.5099 17.17 15.5848 17.3947 15.7346 17.4697L18.5819 19.5676ZM7.56762 16.7204C7.34284 16.5705 7.04314 16.5705 6.89328 16.7204L3.82128 19.6425C2.84723 19.0431 1.64841 19.118 0.82421 19.8673C1.49179e-05 20.6166 -0.224766 21.8154 0.299722 22.7145C0.82421 23.6886 1.94811 24.1381 3.07201 23.9134C4.12099 23.6137 4.94519 22.7145 4.94519 21.5906C4.94519 21.1411 4.79533 20.6915 4.57055 20.3169L7.64255 17.3947C7.7924 17.17 7.79241 16.8702 7.56762 16.7204ZM9.06616 2.40937C9.06616 3.53327 9.89036 4.50732 11.0143 4.7321V7.12976C11.0143 7.27961 11.0892 7.50439 11.239 7.57932C11.3889 7.65425 11.6137 7.65425 11.7635 7.57932C11.9134 7.50439 11.9883 7.35454 11.9883 7.12976V4.7321C13.2621 4.50732 14.0863 3.30849 13.9364 2.10966C13.7866 0.910832 12.6626 0.0117104 11.314 0.0866372C10.0402 0.0866372 9.06616 1.13561 9.06616 2.40937ZM19.1064 10.951L16.7836 11.7752C16.5588 11.8501 16.409 12.1499 16.4839 12.3746C16.5588 12.5994 16.8585 12.7493 17.1583 12.6743L19.481 11.8501C20.1553 12.8991 21.504 13.2738 22.6279 12.7493C23.7518 12.2248 24.2763 10.951 23.9017 9.82712C23.4521 8.70322 22.2533 8.02888 21.0545 8.32859C19.7058 8.55337 18.9565 9.67727 19.1064 10.951ZM4.27084 4.35747C3.44665 3.68312 2.24782 3.6082 1.27377 4.20761C0.374649 4.80703 -0.0749119 5.93093 0.299722 6.90498C0.674356 7.95395 1.64841 8.55337 2.77231 8.47844C3.22187 8.47844 3.67143 8.25366 4.04606 8.02888L5.91923 9.60234C6.06909 9.7522 6.21894 9.7522 6.44372 9.7522C6.59358 9.67727 6.74343 9.52742 6.81836 9.37756C6.81836 9.22771 6.74343 9.00293 6.59358 8.928L4.72041 7.35454C4.94519 6.9799 5.09504 6.53034 5.02011 6.00586C5.09504 5.33151 4.79533 4.7321 4.27084 4.35747Z" fill="#1FB8AF"/>
<path d="M10.8649 18.7434C7.34331 18.7434 4.49609 16.0461 4.49609 12.7493C4.49609 9.45249 7.34331 6.75513 10.8649 6.75513C14.3864 6.75513 17.2337 9.45249 17.2337 12.7493C17.2337 16.0461 14.3864 18.7434 10.8649 18.7434Z" fill="#1FB8AF"/>
<path d="M10.8646 6.75513C7.79263 6.75513 5.24512 9.30264 5.24512 12.3746C5.24512 15.4466 7.79263 17.9942 10.8646 17.9942C13.9366 17.9942 16.4841 15.4466 16.4841 12.3746C16.4841 10.8761 15.8847 9.45249 14.8357 8.40352C13.7868 7.35454 12.3632 6.75513 10.8646 6.75513Z" fill="#1FB8AF"/>
<path d="M8.99121 11.2507C8.99121 12.1499 9.5157 12.9741 10.3399 13.3487C11.1641 13.7233 12.1381 13.4985 12.8125 12.8991C13.4868 12.2248 13.6367 11.2507 13.337 10.4265C12.9623 9.60234 12.1381 9.00293 11.239 9.00293C10.0402 9.00293 8.99121 9.97698 8.99121 11.2507Z" fill="#1FB8AF"/>
<path d="M14.2359 14.3227C13.9362 13.1239 12.8123 12.2248 11.4636 12L11.0141 12.6743H10.5645L10.1149 12C8.76626 12.2248 7.71729 13.1988 7.49251 14.4726C7.49251 14.6224 7.49251 14.9971 8.09192 14.9971H10.2648L10.6394 12.6743H10.9391L11.3138 14.9971H13.6365C14.2359 14.9971 14.2359 14.5475 14.2359 14.3227ZM1.12373 7.05482C0.599239 6.4554 0.599239 5.48135 1.19865 4.95687C1.72314 4.5073 2.47241 4.43238 2.9969 4.80701C3.59631 5.18165 3.82109 5.85599 3.59631 6.53033C3.37153 7.20467 2.77212 7.57931 2.09778 7.57931C1.79807 7.50438 1.42343 7.35452 1.12373 7.05482ZM1.12373 22.0402C0.599239 21.4408 0.599239 20.4667 1.19865 19.9422C1.79807 19.4177 2.77212 19.4177 3.2966 20.0172C3.67124 20.4667 3.82109 21.1411 3.52138 21.6655C3.2966 22.19 2.69719 22.5647 2.09778 22.5647C1.79807 22.4897 1.42343 22.3399 1.12373 22.0402ZM19.8554 21.2909C19.3309 20.6915 19.3309 19.7175 19.9304 19.193C20.4548 18.7434 21.2041 18.6685 21.7286 19.0431C22.328 19.4177 22.5528 20.0921 22.328 20.7664C22.1032 21.4408 21.5038 21.8154 20.8295 21.8154C20.5298 21.7405 20.1551 21.5906 19.8554 21.2909ZM21.354 11.5504C20.8295 10.951 20.8295 9.97696 21.4289 9.45248C21.9534 9.00292 22.7027 8.92799 23.2271 9.30262C23.8266 9.67726 24.0513 10.3516 23.8266 11.0259C23.6018 11.7003 23.0024 12.0749 22.328 12.0749C22.0283 12 21.6537 11.8501 21.354 11.5504ZM10.1149 3.30848C9.59046 2.70906 9.59046 1.73501 10.1899 1.21052C10.7144 0.760964 11.4636 0.686037 11.9881 1.06067C12.5875 1.4353 12.8123 2.10965 12.5875 2.78399C12.3627 3.45833 11.7633 3.83296 11.089 3.83296C10.7893 3.75804 10.4147 3.60818 10.1149 3.30848Z" fill="#1FB8AF"/>
</g>
<defs>
<clipPath id="clip0_1035_181">
<rect width="24" height="24" fill="white"/>
</clipPath>
</defs>
</svg>
